<svg width="20" height="20" viewBox="0 0 20 20" fill="none" xmlns="http://www.w3.org/2000/svg">
<path fill-rule="evenodd" clip-rule="evenodd" d="M19.6002 10.2286C19.6002 9.51947 19.5366 8.83765 19.4184 8.18311H10.0002V12.0513H15.382C15.1502 13.3013 14.4457 14.3604 13.3866 15.0695V17.5786H16.6184C18.5093 15.8377 19.6002 13.274 19.6002 10.2286Z" fill="#4285F4"/>
<path fill-rule="evenodd" clip-rule="evenodd" d="M10.0004 19.9989C12.7004 19.9989 14.964 19.1035 16.6186 17.5762L13.3868 15.0671C12.4913 15.6671 11.3459 16.0217 10.0004 16.0217C7.39587 16.0217 5.19132 14.2626 4.40496 11.8989H1.06405V14.4898C2.7095 17.758 6.09132 19.9989 10.0004 19.9989Z" fill="#34A853"/>
<path fill-rule="evenodd" clip-rule="evenodd" d="M4.40455 11.8973C4.20455 11.2973 4.09091 10.6563 4.09091 9.99726C4.09091 9.33817 4.20455 8.69726 4.40455 8.09726V5.50635H1.06364C0.386364 6.85635 0 8.38362 0 9.99726C0 11.6109 0.386364 13.1382 1.06364 14.4882L4.40455 11.8973Z" fill="#FBBC05"/>
<path fill-rule="evenodd" clip-rule="evenodd" d="M10.0004 3.97727C11.4686 3.97727 12.7868 4.48182 13.8231 5.47273L16.6913 2.60455C14.9595 0.990909 12.6959 0 10.0004 0C6.09132 0 2.70951 2.24091 1.06405 5.50909L4.40496 8.1C5.19132 5.73636 7.39587 3.97727 10.0004 3.97727Z" fill="#EA4335"/>
</svg>
