<svg width="244" height="41" viewBox="0 0 244 41" fill="none" xmlns="http://www.w3.org/2000/svg">
<path d="M80.8818 9.67962V33.4116H76.1218V17.9756L69.7638 33.4116H66.1598L59.7678 17.9756V33.4116H55.0078V9.67962H60.4138L67.9618 27.3256L75.5098 9.67962H80.8818ZM100.684 33.6496C98.4625 33.6496 96.4225 33.1283 94.5638 32.0856C92.7052 31.043 91.2318 29.6036 90.1438 27.7676C89.0558 25.909 88.5118 23.8123 88.5118 21.4776C88.5118 19.1656 89.0558 17.0916 90.1438 15.2556C91.2318 13.397 92.7052 11.9463 94.5638 10.9036C96.4225 9.86095 98.4625 9.33962 100.684 9.33962C102.928 9.33962 104.968 9.86095 106.804 10.9036C108.663 11.9463 110.125 13.397 111.19 15.2556C112.278 17.0916 112.822 19.1656 112.822 21.4776C112.822 23.8123 112.278 25.909 111.19 27.7676C110.125 29.6036 108.663 31.043 106.804 32.0856C104.945 33.1283 102.905 33.6496 100.684 33.6496ZM100.684 29.3996C102.112 29.3996 103.37 29.0823 104.458 28.4476C105.546 27.7903 106.396 26.861 107.008 25.6596C107.62 24.4583 107.926 23.0643 107.926 21.4776C107.926 19.891 107.62 18.5083 107.008 17.3296C106.396 16.1283 105.546 15.2103 104.458 14.5756C103.37 13.941 102.112 13.6236 100.684 13.6236C99.2558 13.6236 97.9865 13.941 96.8758 14.5756C95.7878 15.2103 94.9378 16.1283 94.3258 17.3296C93.7138 18.5083 93.4078 19.891 93.4078 21.4776C93.4078 23.0643 93.7138 24.4583 94.3258 25.6596C94.9378 26.861 95.7878 27.7903 96.8758 28.4476C97.9865 29.0823 99.2558 29.3996 100.684 29.3996ZM140.741 33.4116H135.981L125.203 17.1256V33.4116H120.443V9.64562H125.203L135.981 25.9656V9.64562H140.741V33.4116ZM154.285 13.5216V19.4716H162.275V23.2456H154.285V29.5356H163.295V33.4116H149.525V9.64562H163.295V13.5216H154.285ZM187.851 9.67962V13.5216H181.527V33.4116H176.767V13.5216H170.443V9.67962H187.851ZM209.956 28.8896H200.504L198.94 33.4116H193.942L202.476 9.64562H208.018L216.552 33.4116H211.52L209.956 28.8896ZM208.664 25.0816L205.23 15.1536L201.796 25.0816H208.664ZM228.582 13.5216V19.4716H236.572V23.2456H228.582V29.5356H237.592V33.4116H223.822V9.64562H237.592V13.5216H228.582Z" fill="#333333"/>
<circle cx="21.3088" cy="20.5" r="20.5" fill="#333333"/>
<path d="M28.1542 28.2646C26.7287 28.2646 25.5017 27.962 24.4732 27.3567C23.4507 26.7451 22.6628 25.8813 22.1094 24.7653C21.5561 23.643 21.2794 22.3157 21.2794 20.7836C21.2794 19.2892 21.5561 17.9778 22.1094 16.8491C22.6628 15.7205 23.4417 14.8409 24.4461 14.2104C25.4566 13.5799 26.6415 13.2646 28.0008 13.2646C28.915 13.2646 29.7661 13.4191 30.554 13.7281C31.348 14.0307 32.0396 14.4879 32.6291 15.0995C33.2245 15.7111 33.6877 16.4803 34.0185 17.4071C34.3493 18.3277 34.5147 19.4059 34.5147 20.6417V21.7483H22.8131V19.2514H30.8969C30.8969 18.6713 30.7766 18.1575 30.536 17.7098C30.2954 17.2621 29.9616 16.9122 29.5345 16.66C29.1135 16.4015 28.6233 16.2722 28.0639 16.2722C27.4805 16.2722 26.9633 16.4141 26.5122 16.6978C26.0671 16.9752 25.7182 17.3504 25.4656 17.8233C25.213 18.2899 25.0837 18.81 25.0777 19.3838V21.7577C25.0777 22.4765 25.204 23.0976 25.4566 23.6209C25.7152 24.1442 26.0791 24.5477 26.5482 24.8315C27.0174 25.1152 27.5737 25.2571 28.2173 25.2571C28.6444 25.2571 29.0353 25.194 29.3902 25.0679C29.745 24.9418 30.0488 24.7527 30.3014 24.5005C30.554 24.2483 30.7465 23.9393 30.8788 23.5736L34.4335 23.8195C34.253 24.7148 33.8831 25.4967 33.3238 26.165C32.7704 26.8271 32.0547 27.3441 31.1765 27.7161C30.3044 28.0818 29.2969 28.2646 28.1542 28.2646Z" fill="#40E0D0"/>
<path d="M12.6259 28.2646C11.7455 28.2646 10.9609 28.1038 10.2721 27.782C9.58336 27.4539 9.03834 26.9713 8.63705 26.334C8.24176 25.6905 8.04411 24.8893 8.04411 23.9303C8.04411 23.1227 8.18486 22.4445 8.46636 21.8956C8.74786 21.3467 9.13117 20.905 9.61631 20.5706C10.1014 20.2363 10.6525 19.9839 11.2694 19.8135C11.8922 19.6432 12.5451 19.5233 13.2279 19.4539C14.0304 19.3656 14.6773 19.2836 15.1684 19.2079C15.6595 19.1258 16.0159 19.006 16.2375 18.8482C16.4591 18.6905 16.5699 18.4571 16.5699 18.1479V18.0911C16.5699 17.4918 16.3902 17.0281 16.0309 16.7C15.6775 16.3719 15.1744 16.2079 14.5215 16.2079C13.8328 16.2079 13.2848 16.3687 12.8775 16.6905C12.4702 17.006 12.2007 17.4034 12.0689 17.8829L8.52925 17.5801C8.70893 16.6968 9.0623 15.9334 9.58935 15.2899C10.1164 14.64 10.7962 14.1416 11.6287 13.7946C12.4672 13.4413 13.4375 13.2646 14.5395 13.2646C15.3061 13.2646 16.0398 13.3593 16.7406 13.5486C17.4473 13.7378 18.0732 14.0312 18.6182 14.4287C19.1692 14.8262 19.6035 15.3372 19.9209 15.9618C20.2383 16.5801 20.3971 17.3214 20.3971 18.1858V27.9902H16.7675V25.9744H16.6597C16.4381 26.4287 16.1417 26.8293 15.7703 27.1763C15.399 27.517 14.9528 27.7852 14.4317 27.9807C13.9106 28.17 13.3087 28.2646 12.6259 28.2646ZM13.722 25.4823C14.285 25.4823 14.7821 25.3656 15.2133 25.1322C15.6445 24.8924 15.9829 24.5706 16.2285 24.1669C16.4741 23.7631 16.5968 23.3057 16.5968 22.7946V21.252C16.4771 21.334 16.3123 21.4098 16.1027 21.4792C15.8991 21.5422 15.6685 21.6022 15.411 21.659C15.1534 21.7094 14.8959 21.7568 14.6383 21.8009C14.3808 21.8388 14.1472 21.8735 13.9376 21.905C13.4884 21.9744 13.0961 22.0848 12.7607 22.2363C12.4253 22.3877 12.1648 22.5927 11.9791 22.8514C11.7934 23.1038 11.7006 23.4192 11.7006 23.7978C11.7006 24.3467 11.8892 24.7662 12.2666 25.0564C12.6499 25.3404 13.135 25.4823 13.722 25.4823Z" fill="#40E0D0"/>
</svg>
