<svg width="34" height="34" viewBox="0 0 34 34" fill="none" xmlns="http://www.w3.org/2000/svg">
<circle cx="17" cy="17" r="17" fill="#333333"/>
<path d="M22.6766 23.439C21.4945 23.439 20.477 23.188 19.6241 22.6861C18.7762 22.1789 18.1228 21.4626 17.6639 20.5371C17.205 19.6064 16.9756 18.5058 16.9756 17.2352C16.9756 15.996 17.205 14.9084 17.6639 13.9725C18.1228 13.0366 18.7687 12.3072 19.6017 11.7843C20.4396 11.2614 21.4222 11 22.5494 11C23.3076 11 24.0133 11.1281 24.6667 11.3843C25.3251 11.6353 25.8987 12.0144 26.3875 12.5215C26.8813 13.0287 27.2654 13.6666 27.5397 14.4352C27.814 15.1986 27.9512 16.0927 27.9512 17.1176V18.0352H18.2475V15.9646H24.951C24.951 15.4836 24.8513 15.0575 24.6518 14.6862C24.4523 14.315 24.1754 14.0248 23.8213 13.8156C23.4722 13.6013 23.0657 13.4941 22.6018 13.4941C22.118 13.4941 21.689 13.6117 21.315 13.847C20.9459 14.0771 20.6566 14.3882 20.4471 14.7803C20.2376 15.1673 20.1304 15.5986 20.1254 16.0744V18.043C20.1254 18.6391 20.2301 19.1541 20.4396 19.5881C20.6541 20.0221 20.9558 20.3567 21.3449 20.592C21.7339 20.8273 22.1953 20.9449 22.729 20.9449C23.0831 20.9449 23.4073 20.8927 23.7016 20.7881C23.9959 20.6835 24.2478 20.5267 24.4573 20.3175C24.6667 20.1084 24.8264 19.8522 24.9361 19.5489L27.8839 19.7528C27.7342 20.4953 27.4275 21.1436 26.9636 21.6979C26.5047 22.2469 25.9112 22.6756 25.183 22.9841C24.4597 23.2874 23.6243 23.439 22.6766 23.439Z" fill="#40E0D0"/>
<path d="M9.79956 23.439C9.06945 23.439 8.4188 23.3056 7.84763 23.0388C7.27645 22.7667 6.82448 22.3665 6.49171 21.838C6.1639 21.3044 6 20.6399 6 19.8447C6 19.175 6.11672 18.6125 6.35015 18.1573C6.58359 17.7022 6.90146 17.3359 7.30377 17.0586C7.70608 16.7813 8.16302 16.5721 8.67459 16.4308C9.19113 16.2895 9.73251 16.1901 10.2987 16.1326C10.9643 16.0593 11.5007 15.9913 11.9079 15.9285C12.3152 15.8605 12.6107 15.7611 12.7945 15.6303C12.9783 15.4995 13.0702 15.3059 13.0702 15.0495V15.0025C13.0702 14.5054 12.9212 14.1209 12.6231 13.8488C12.3301 13.5767 11.9129 13.4407 11.3715 13.4407C10.8004 13.4407 10.3459 13.5741 10.0082 13.841C9.67042 14.1026 9.44692 14.4322 9.33765 14.8298L6.40231 14.5787C6.55131 13.8462 6.84435 13.2131 7.28142 12.6795C7.71849 12.1406 8.28222 11.7272 8.97259 11.4395C9.66794 11.1465 10.4725 11 11.3864 11C12.0222 11 12.6306 11.0785 13.2117 11.2354C13.7978 11.3924 14.3168 11.6357 14.7688 11.9653C15.2257 12.2949 15.5858 12.7187 15.849 13.2367C16.1123 13.7494 16.2439 14.3642 16.2439 15.0809V23.2114H13.2341V21.5398H13.1447C12.9609 21.9165 12.715 22.2487 12.4071 22.5365C12.0992 22.819 11.7291 23.0414 11.297 23.2036C10.8649 23.3605 10.3658 23.439 9.79956 23.439ZM10.7085 21.1317C11.1753 21.1317 11.5876 21.0349 11.9452 20.8413C12.3028 20.6425 12.5834 20.3757 12.7871 20.0409C12.9907 19.706 13.0925 19.3267 13.0925 18.9029V17.6237C12.9932 17.6917 12.8566 17.7545 12.6828 17.812C12.5139 17.8644 12.3227 17.9141 12.1091 17.9611C11.8955 18.003 11.682 18.0422 11.4684 18.0789C11.2548 18.1103 11.0611 18.139 10.8873 18.1652C10.5148 18.2227 10.1894 18.3143 9.91131 18.4399C9.63317 18.5654 9.41712 18.7355 9.26315 18.95C9.10918 19.1593 9.0322 19.4209 9.0322 19.7348C9.0322 20.19 9.18865 20.5379 9.50155 20.7786C9.81942 21.014 10.2217 21.1317 10.7085 21.1317Z" fill="#40E0D0"/>
</svg>
